<?xml version="1.0" encoding="UTF-8"?>
<svg id="Layer_1" data-name="Layer 1" xmlns="http://www.w3.org/2000/svg" viewBox="0 0 510.88 126">
  <defs>
    <style>
      .cls-1 {
        fill: #f00000;
      }

      .cls-2 {
        fill: #001996;
      }
    </style>
  </defs>
  <g id="Group_17" data-name="Group 17">
    <path id="Path_85" data-name="Path 85" class="cls-1" d="M310.66,48.63c-.35.82-.8,1.58-1.36,2.28-2.12,2.73-5.31,4.42-8.75,4.64-2.74,0-4.56-1.73-2.62-5.73,2.74-5.82,9.45-7.47,15.7-7.47l-2.96,6.28ZM319.54,17.74c-6.44.05-12.81,1.33-18.77,3.77l-4.44,9.59c5.01-2.41,10.47-3.76,16.03-3.94,6.14,0,6.49,3.07,5.12,5.98l-.45.79c-14.21,0-27.75,5.34-33.32,17.21-3.52,7.62-.9,13.91,7.72,13.91,5.4-.13,10.6-2.04,14.8-5.43h.34l-1.37,4.48h12.49c1.24-3.66,2.68-7.26,4.32-10.76l7.63-16.27c4.64-10.06,5.1-19.34-10.12-19.34"/>
    <path id="Path_86" data-name="Path 86" class="cls-1" d="M175.46,18.6l-12.97,27.98c-.61,1.22-1.37,2.36-2.27,3.38-1.97,2.42-4.85,3.93-7.96,4.16-4.43,0-4.43-3.93-1.47-10.29l11.83-25.22h-13.98l-12.62,27.11c-6.26,13.29-3.42,19.35,6.03,19.35,6.02-.26,11.77-2.6,16.27-6.61h.21l-1.92,5.66h12.39c1.16-3.69,2.61-7.29,4.32-10.76,1.82-3.93,16.15-34.74,16.15-34.74h-13.99Z"/>
    <path id="Path_87" data-name="Path 87" class="cls-1" d="M228.11,65.06c10.35,0,25.01-6.37,33.29-23.98,6.49-14.07,2.39-23.35-10.68-23.35-14.89.8-27.99,10.09-33.66,23.89-6.82,14.7-1.82,23.44,11.03,23.44M232.75,55.31c-5.46,0-5.12-6.22-1.47-14,3.07-6.52,8.41-13.84,14.55-13.84,5.57,0,4.21,7.31,1.13,13.84-3.51,7.56-8.97,14-14.08,14"/>
    <path id="Path_88" data-name="Path 88" class="cls-1" d="M376.05,65.06c10.23,0,25.02-6.37,33.21-23.98,6.49-14.07,2.5-23.35-10.69-23.35-14.85.83-27.9,10.12-33.55,23.89-6.92,14.7-1.94,23.44,10.92,23.44h.11ZM380.6,55.31c-5.46,0-5.01-6.22-1.48-14,3.08-6.52,8.54-13.84,14.56-13.84,5.69,0,4.2,7.31,1.14,13.84-3.42,7.55-8.99,14-14.11,14"/>
    <path id="Path_89" data-name="Path 89" class="cls-1" d="M453.82,17.98c-.93-.21-1.89-.29-2.85-.24-6.11.63-11.7,3.72-15.47,8.57h-.34l2.97-7.71h-11.96c-1.7,4.09-3.75,8.73-6.36,14.46l-14.54,31.04h7.51c4.14.05,7.88-2.45,9.43-6.28l7.85-16.74c.6-1.32,1.32-2.59,2.16-3.77,2.78-4.09,7.34-6.63,12.29-6.83,1.1-.02,2.21.05,3.3.23l6-12.73Z"/>
    <path id="Path_90" data-name="Path 90" class="cls-1" d="M351.37,54.04c-3.64,0-4.55-2.05-2.05-7.39l8.65-18.39h8.3l4.54-9.67h-8.4l5.68-12.11h-7.28c-4.15,0-7.89,2.52-9.44,6.37l-2.73,5.73h-6.02l-4.44,9.67h5.92l-9.21,19.89c-3.19,6.76-3.64,10.77-2.16,13.29,2.11,2.62,5.42,3.96,8.76,3.53,3.14.04,6.28-.33,9.32-1.09l4.76-10.22c-1.38.31-2.79.44-4.2.39"/>
    <path id="Path_91" data-name="Path 91" class="cls-1" d="M290.88,6.5c-4.17-.04-7.93,2.49-9.45,6.37l-23.99,51.23h7.52c4.14.04,7.88-2.45,9.43-6.28l23.99-51.32h-7.5Z"/>
    <path id="Path_92" data-name="Path 92" class="cls-1" d="M225.95,17.98c-.93-.22-1.89-.3-2.85-.24-6.08.63-11.63,3.73-15.35,8.57h-.43l3.06-7.71h-12.06c-1.7,4.09-3.64,8.73-6.36,14.46l-14.44,31.04h7.38c4.18.08,7.98-2.41,9.56-6.28l7.73-16.74c.59-1.33,1.32-2.59,2.16-3.77,2.78-4.09,7.33-6.63,12.28-6.83,1.14-.02,2.28.05,3.41.23l5.92-12.73Z"/>
    <path id="Path_93" data-name="Path 93" class="cls-1" d="M112.13,31.02c-1.18.06-2.36-.02-3.53-.23l8.75-18.79c1.7-.18,3.41-.23,5.12-.16,6.71,0,8.41,3.46,5.68,9.51-2.89,6.17-9.22,9.99-16.03,9.66M141.92,21.42c3.64-8.95,3.64-19.09-16.15-19.09h-17.73l-28.87,61.77h7.28c4.18.08,7.98-2.41,9.56-6.28l7.73-16.5c1.02.09,2.38.16,3.87.16,7.66.47,15.28-1.3,21.94-5.11,5.58-3.57,9.91-8.79,12.39-14.94"/>
    <path id="Path_94" data-name="Path 94" class="cls-2" d="M95.07,2.33h-23.63l-28.79,61.77h16.95c4.18.08,7.98-2.41,9.56-6.28,1.93-4.09,25.94-55.49,25.94-55.49"/>
    <path id="Path_95" data-name="Path 95" class="cls-1" d="M63.8,2.33l-28.77,61.77h-10.91L50.06,8.62c1.57-3.81,5.29-6.29,9.41-6.29h4.32Z"/>
    <path id="Path_96" data-name="Path 96" class="cls-2" d="M29.69,36.06H2.85C1.29,36.04.02,37.29,0,38.84c0,.01,0,.03,0,.04.04.73.32,1.42.8,1.96l18.2,18.07,10.68-22.86Z"/>
  </g>
  <g>
    <path class="cls-2" d="M412.75,106.02c0-2.32.17-4.63.5-6.93.33-2.3.93-4.46,1.8-6.5.87-2.04,2.09-3.85,3.68-5.42,1.59-1.58,3.62-2.82,6.11-3.72,2.49-.9,5.52-1.36,9.1-1.36.79,0,1.76.05,2.9.14,1.14.09,2.09.2,2.85.33v8.55c-.76-.15-1.6-.27-2.54-.37s-2.09-.15-3.46-.15c-2.73,0-4.88.41-6.46,1.23-1.58.82-2.72,2-3.42,3.53-.7,1.53-1.11,3.37-1.22,5.5h.33c.48-.88,1.06-1.68,1.76-2.39s1.54-1.27,2.56-1.69c1.01-.41,2.24-.62,3.68-.62,2.36,0,4.39.51,6.09,1.54s3,2.51,3.9,4.47c.9,1.96,1.35,4.33,1.35,7.14,0,3.02-.58,5.61-1.73,7.76s-2.79,3.79-4.92,4.92c-2.13,1.14-4.67,1.7-7.62,1.7-2.18,0-4.19-.35-6.05-1.05-1.85-.7-3.47-1.78-4.84-3.22-1.37-1.45-2.44-3.28-3.21-5.5-.77-2.22-1.15-4.85-1.15-7.87ZM427.74,115.01c1.16,0,2.11-.44,2.83-1.33.73-.88,1.09-2.28,1.09-4.18,0-1.53-.3-2.73-.9-3.61-.6-.88-1.57-1.31-2.92-1.31-.9,0-1.67.22-2.3.65s-1.11.98-1.44,1.64c-.33.67-.5,1.36-.5,2.08s.08,1.44.23,2.16.41,1.37.75,1.95c.34.58.77,1.05,1.29,1.41.52.36,1.14.54,1.85.54Z"/>
    <path class="cls-2" d="M462.38,96.62c2.25,0,4.3.51,6.14,1.52,1.84,1.01,3.32,2.49,4.43,4.43,1.11,1.94,1.66,4.3,1.66,7.08,0,3.01-.6,5.56-1.81,7.65-1.21,2.09-3.02,3.68-5.45,4.76-2.43,1.08-5.48,1.62-9.17,1.62-2.34,0-4.48-.18-6.4-.54-1.93-.36-3.65-.91-5.16-1.64v-8.96c1.42.65,3.13,1.23,5.13,1.76s3.84.79,5.52.79c1.35,0,2.49-.19,3.43-.58.94-.39,1.66-.96,2.14-1.72.49-.76.73-1.69.73-2.79,0-1.53-.55-2.73-1.66-3.61-1.11-.88-2.79-1.31-5.03-1.31-1.02,0-2.01.1-2.99.3-.98.2-1.84.42-2.57.66l-4.01-1.99,1.52-21.36h23.07v9.1h-13.78l-.5,5.34c.59-.11,1.19-.22,1.81-.33.62-.11,1.6-.17,2.95-.17Z"/>
  </g>
  <path class="cls-1" d="M506.05,88.23h-.76s-.34,0-.34,0h-.33c-.63,0-1.37,0-2.08-.02-1.13-.03-2.45-.13-3.6-.69-1.06-.52-.99-1.2-.96-1.46.09-.82.31-1.68.53-2.51.1-.38.2-.76.28-1.13l.77-3.34-2.95,1.75c-.27.16-.56.34-.86.52-.67.41-1.43.87-2.18,1.28-1.86,1-4.05,2.08-6.4,2.21-.08,0-.15,0-.23,0-1.41,0-2.3-.72-2.46-1.98-.08-.65.08-1.34.52-2.17.93-1.79,2.34-3.29,3.72-4.64.79-.77,1.58-1.53,2.41-2.32l1.16-1.11,2.12-2.03-2.9-.47c-.22-.04-.43-.06-.63-.09-.33-.04-.62-.08-.85-.15-.86-.24-1.43-.64-1.59-1.14-.17-.52.08-1.23.68-1.96.23-.28.46-.54.72-.84.14-.16.28-.32.43-.49l1.43-1.65-2.07-.69c-.11-.04-.22-.07-.32-.11-.23-.08-.46-.16-.71-.23-2.5-.65-3.18-1.61-2.92-4.13.12-1.14.58-3.18.85-4.4.06-.29.12-.53.16-.73l1.54-7.09-4.17,5.94c-.17.24-.35.52-.55.81-.34.5-.68,1.02-.97,1.38l-.2.26c-.53.69-1.04,1.34-1.6,1.9-.82.82-1.58,1.22-2.34,1.22-.67,0-1.42-.29-2.29-.89-.2-.14-.41-.28-.65-.44l-.36-.24-1.91-1.28-.36,2.27c-.02.14-.04.28-.06.4-.03.19-.05.35-.08.46-.05.21-.1.43-.15.65-.11.5-.22.97-.39,1.34-.32.71-.68.71-.82.71s-.28-.03-.45-.08c-.54-.18-1.11-.51-1.7-.87-.31-.18-.62-.37-.94-.54l-1.97-1.06-.19,2.22c0,.12-.02.24-.03.38-.02.3-.05.65-.09,1-.08.65-.15,1.31-.22,1.96-.19,1.72-.39,3.51-.66,5.23-.16,1.03-.62,2-1.32,2.8-.45.51-1.04.8-1.67.8-.55,0-1.08-.21-1.54-.62-.86-.76-1.46-1.75-1.79-2.94-.43-1.55-.79-3.16-1.14-4.72-.13-.61-.27-1.21-.41-1.81-.02-.1-.04-.24-.06-.44-.02-.14-.03-.29-.06-.47l-.53-4.12-2.17,3.55c-.14.22-.26.43-.38.63-.22.37-.42.69-.62,1-.63.96-1.28,1.45-1.91,1.45-.48,0-1.07-.26-1.71-.76-.8-.62-1.52-1.4-2.28-2.22-.27-.29-.55-.59-.83-.88-.12-.12-.23-.25-.34-.38-.32-.37-.69-.78-1.2-1.16l-3.29-2.44,1,3.97c.08.31.16.61.24.92.18.67.35,1.29.46,1.92l.07.38c.22,1.18.43,2.28.48,3.38.02.48.03.62-.7.71-.56.06-1.17.07-1.81.07-.33,0-.67,0-1.01.01l-2.45.06,1.22,2.13c.05.08.09.16.13.24.11.21.23.43.39.65.32.47.64.93.97,1.4.45.65.91,1.31,1.35,1.97.16.23.29.48.37.72.02.05.03.09.03.12h1.46c0-.19-.04-.4-.12-.62-.13-.36-.32-.72-.53-1.04-.76-1.13-1.55-2.25-2.32-3.37-.17-.24-.3-.51-.46-.79,1.06-.03,2.02.02,2.95-.09,1.39-.16,2.06-.84,2-2.23-.06-1.33-.33-2.65-.58-3.96-.19-.99-.48-1.95-.73-2.93.56.42.93.93,1.36,1.38,1.06,1.1,2.06,2.3,3.26,3.23.92.72,1.79,1.07,2.61,1.07,1.17,0,2.22-.72,3.14-2.11.32-.49.62-1,1.02-1.66.06.48.08.77.14,1.05.51,2.21.95,4.43,1.56,6.61.39,1.39,1.12,2.65,2.23,3.64.74.66,1.63.99,2.51.99,1.02,0,2.02-.44,2.77-1.3.89-1.02,1.46-2.23,1.66-3.54.37-2.4.6-4.83.88-7.25.06-.52.09-1.05.12-1.43.97.52,1.87,1.17,2.87,1.5.32.11.63.16.91.16.94,0,1.69-.56,2.15-1.57.32-.7.44-1.49.63-2.24.07-.29.1-.59.16-.99.4.27.7.46.99.67,1.11.77,2.14,1.15,3.13,1.15,1.17,0,2.27-.54,3.38-1.65.7-.7,1.31-1.51,1.92-2.3.49-.63,1.1-1.59,1.56-2.25-.23,1.06-.88,3.79-1.04,5.29-.34,3.28.85,4.88,4.01,5.7.29.07.57.19.93.31-.45.52-.82.93-1.18,1.36-1.9,2.32-1.19,4.67,1.66,5.44.49.13,1,.17,1.63.27-1.25,1.21-2.42,2.31-3.57,3.44-1.54,1.5-2.99,3.08-4,5.01-.49.94-.8,1.95-.67,3.03.25,2.01,1.78,3.27,3.91,3.27.1,0,.2,0,.31,0,2.55-.14,4.81-1.2,7.01-2.38,1.13-.6,2.2-1.3,3.1-1.83-.27,1.18-.7,2.48-.85,3.81-.14,1.32.55,2.34,1.78,2.93,1.33.64,2.75.8,4.2.84.71.02,1.41.02,2.12.02.22,0,.45,0,.67,0,.25,0,.5,0,.75,0-1,.66-2.08,1.12-3.07,1.71-1.29.76-2.56,1.59-3.77,2.47-.65.47-.79,1.26-.51,2,.25.68.63,1.31,1.01,1.93.27.45.64.84,1.06,1.37-.7.06-1.27.11-1.84.16-1.41.12-2.83.16-4.22.39-1.39.23-1.93,1.31-1.42,2.64.24.63.59,1.21.94,1.92-1.06-.08-2.05-.17-3.04-.22-.96-.05-1.92-.13-2.88-.13-.31,0-.61,0-.91.03-1.42.1-2.33.99-2.84,2.31-.49,1.26.03,2.24.9,3.09.54.53,1.11,1.02,1.68,1.51.71.61,1.45,1.19,2.17,1.79-1.02.27-1.98.35-2.94.46-2.34.28-3.79,1.34-4.51,3.28h1.6c.58-1.08,1.54-1.64,3.09-1.82l.45-.05c.85-.1,1.72-.2,2.68-.45l2.76-.73-2.21-1.82-.67-.55c-.5-.41-.99-.81-1.48-1.23-.53-.45-1.1-.94-1.6-1.44-.77-.76-.71-1.14-.56-1.52.44-1.16,1.07-1.34,1.57-1.38.25-.02.52-.03.81-.03.62,0,1.25.04,1.92.08.3.02.59.04.89.05.66.03,1.32.09,2.02.14.32.03.65.05.99.08l2.56.19-1.14-2.3c-.12-.24-.24-.46-.35-.68-.22-.41-.4-.77-.54-1.11-.12-.32-.09-.48-.07-.52.02-.03.13-.11.37-.15.9-.15,1.81-.21,2.79-.28.44-.03.88-.06,1.32-.1l1.23-.11.62-.05,2.69-.23-1.67-2.13c-.14-.18-.28-.35-.41-.51-.23-.28-.42-.51-.55-.72-.33-.54-.67-1.12-.88-1.68-.03-.07-.08-.24,0-.3,1.15-.84,2.37-1.64,3.65-2.39.38-.22.77-.43,1.19-.64.64-.33,1.29-.67,1.95-1.1l4.02-2.66-4.82-.02Z"/>
</svg>