<?xml version="1.0" encoding="utf-8"?>
<!-- Generator: Adobe Illustrator 24.0.2, SVG Export Plug-In . SVG Version: 6.00 Build 0)  -->
<svg version="1.0" id="Layer_1" xmlns="http://www.w3.org/2000/svg" xmlns:xlink="http://www.w3.org/1999/xlink" x="0px" y="0px"
	 viewBox="0 0 300 280" enable-background="new 0 0 300 280" xml:space="preserve">
<g>
	<path fill-rule="evenodd" clip-rule="evenodd" fill="#F15A22" d="M41.83,118.88l0.05,3.35c1.52-0.04,3.04-0.09,3.64,1.31
		l-0.2,18.21l-3.55,0.34l-0.05,3.16l15.25,0.15v-3.25h-3.64l-0.15-9.03c3.6,0.01,6.94,0.17,6.75,2.53
		c-0.63,6.64,0.86,10.95,6.81,10.34c5.15-0.53,5.7-2.82,5.96-7.86h-2.67c0.17,4.72-3.21,6.04-2.72,0.87c0.4-4.2-0.65-6.56-4.18-7.58
		c7.29-1.01,9.64-13.08-5.46-12.45L41.83,118.88L41.83,118.88z M53.03,122.39h4.24c2.07,0,3.77,1.7,3.77,3.77l0,0
		c0,2.07-1.7,3.77-3.77,3.77h-4.24V122.39L53.03,122.39z M73.39,145.19h11.6v-3.14c-1.19-0.22-2.44-0.23-3.58-0.65l1.29-4.68h7.76
		l1.19,4.08c-0.28,1.24-1.88,1.28-3.63,1.19v3.23h14.63v-3.18c-1.82-0.03-3.12-0.66-3.88-1.89l-6.72-21.3l-7.81-0.05
		c-2.62,7.99-5.1,16.48-8.16,22.99l-2.74,0.2C73.34,142.01,73.24,145.19,73.39,145.19L73.39,145.19z M83.65,133.44h5.97l-3.09-8.21
		L83.65,133.44L83.65,133.44z M103.77,118.91v3.43h2.75c0.83,0.2,1.17,1.05,1.16,2.38v14.95c0,2.14-1.55,2.55-3.8,2.43v3.28h12.15
		v-3.43c-1.98,0.26-3.92,0.29-3.91-1.59l0.05-14.58l10.67,19.5h8.35l-0.26-21.14c-0.02-1.46,1.68-1.8,3.7-1.85v-3.43h-12.1v3.38
		c2.11-0.01,4.01-0.16,4.02,2.01l0.05,13.11l-10.2-18.28L103.77,118.91L103.77,118.91z M136.78,118.97v3.31h3.57
		c0.49,6.33,0.38,12.55,0.16,18.75c-0.95,1.11-2.25,1.2-3.62,1.05l-0.05,3.2h12.02c2.14,0,4.93,0.14,6.92-0.04
		c8.83-0.8,12.33-10.67,1.53-13.82c9.47-5.05,4.66-13.31-4.73-12.45H136.78L136.78,118.97z M148.18,122.39h3.31
		c2.05,0,3.73,1.68,3.73,3.73l0,0c0,2.05-1.68,3.73-3.73,3.73h-3.31V122.39L148.18,122.39z M148.18,133.31h3.73
		c2.31,0,4.2,1.94,4.2,4.31l0,0c0,2.37-1.89,4.31-4.2,4.31h-3.73V133.31L148.18,133.31z M166.07,145.19h11.6v-3.14
		c-1.19-0.22-2.44-0.23-3.58-0.65l1.29-4.68h7.76l1.19,4.08c-0.28,1.24-1.88,1.28-3.63,1.19v3.23h14.63v-3.18
		c-1.82-0.03-3.12-0.66-3.88-1.89l-6.72-21.3l-7.81-0.05c-2.62,7.99-5.1,16.48-8.16,22.99l-2.74,0.2
		C166.02,142.01,165.92,145.19,166.07,145.19L166.07,145.19z M176.33,133.44h5.97l-3.09-8.21L176.33,133.44L176.33,133.44z
		 M197.78,118.81v3.3c1.56,0.37,2.78,1.23,3.97,2.8l5.87,7.72l-6.15,7.83c-1.17,0.96-2.58,1.44-4.19,1.51v3.41h12.13v-3.24
		c-2.2-0.03-3.14-0.64-2.35-2.01l3.63-4.31c1.52,1.86,2.91,3.77,3.69,5.93l-2.8,0.22v3.41h14.82v-3.47
		c-1.89,0.03-2.96-0.48-3.63-1.34l-7.38-9.39l5.93-7.1c0.98-1.17,2.52-1.73,4.25-2.01v-3.24h-11.85v3.41l2.68,0.73l-3.86,5.09
		l-3.47-5.14l2.85-0.73v-3.3C211.93,118.87,197.67,118.87,197.78,118.81L197.78,118.81z M229.53,118.97v3.21
		c1.68,0.37,3.26,0.97,4.45,2.16l5.67,9.25c0.89,1.62,0.51,3.92,0.64,6.21c0.13,2.33-1.42,2.62-4.02,2.29v3.34h15.58v-3.21h-3.77
		l-0.31-7.48l5.93-9.4c0.91-1.51,2.51-2.53,4.57-3.21v-3.34h-11.06v3.34c1.7,0.16,2.86,0.61,2.41,1.92l-3.89,5.75l-4.33-6.86
		l3.28-0.62v-3.4L229.53,118.97L229.53,118.97z"/>
	<path d="M45.24,161.06v-8.31h1.69v6.9h4.21v1.41H45.24L45.24,161.06z M63.34,161.06H61.5l-0.73-1.91h-3.35l-0.69,1.91h-1.8
		l3.27-8.38h1.79L63.34,161.06L63.34,161.06z M60.22,157.75l-1.16-3.11l-1.13,3.11H60.22L60.22,157.75z M67.68,152.68h3.35
		c0.66,0,1.16,0.03,1.49,0.08c0.33,0.05,0.62,0.17,0.87,0.35c0.26,0.17,0.47,0.41,0.64,0.7c0.17,0.29,0.26,0.62,0.26,0.98
		c0,0.39-0.1,0.75-0.32,1.08c-0.21,0.33-0.5,0.57-0.86,0.74c0.51,0.15,0.9,0.4,1.18,0.76c0.28,0.36,0.41,0.78,0.41,1.26
		c0,0.38-0.09,0.75-0.27,1.11c-0.18,0.36-0.42,0.65-0.73,0.86c-0.31,0.22-0.68,0.35-1.14,0.4c-0.28,0.03-0.96,0.05-2.04,0.06h-2.85
		V152.68L67.68,152.68z M69.37,154.08v1.94h1.11c0.66,0,1.07-0.01,1.23-0.03c0.29-0.03,0.52-0.13,0.68-0.3
		c0.17-0.17,0.25-0.38,0.25-0.66c0-0.26-0.07-0.47-0.21-0.63c-0.14-0.16-0.36-0.26-0.64-0.29c-0.17-0.02-0.65-0.03-1.45-0.03H69.37
		L69.37,154.08z M69.37,157.41v2.24h1.57c0.61,0,1-0.02,1.16-0.05c0.25-0.05,0.46-0.16,0.61-0.33c0.16-0.18,0.24-0.42,0.24-0.71
		c0-0.25-0.06-0.46-0.18-0.64c-0.12-0.18-0.3-0.31-0.53-0.38c-0.23-0.08-0.73-0.12-1.5-0.12H69.37L69.37,157.41z M79.22,156.92
		c0-0.85,0.13-1.57,0.38-2.15c0.19-0.43,0.45-0.81,0.78-1.15c0.33-0.34,0.69-0.59,1.08-0.75c0.52-0.22,1.12-0.33,1.81-0.33
		c1.24,0,2.22,0.38,2.96,1.15c0.74,0.76,1.11,1.83,1.11,3.19c0,1.35-0.37,2.41-1.1,3.18c-0.74,0.76-1.72,1.15-2.95,1.15
		c-1.25,0-2.24-0.38-2.97-1.14C79.59,159.31,79.22,158.26,79.22,156.92L79.22,156.92z M80.96,156.87c0,0.95,0.22,1.67,0.66,2.16
		c0.44,0.49,0.99,0.73,1.67,0.73c0.67,0,1.23-0.24,1.66-0.73c0.43-0.49,0.65-1.21,0.65-2.19c0-0.96-0.21-1.68-0.63-2.15
		c-0.42-0.47-0.98-0.71-1.68-0.71c-0.7,0-1.26,0.24-1.69,0.72C81.18,155.18,80.96,155.9,80.96,156.87L80.96,156.87z M92.11,161.06
		v-8.38h3.56c0.9,0,1.55,0.08,1.95,0.23c0.41,0.15,0.73,0.42,0.98,0.8c0.24,0.39,0.37,0.83,0.37,1.32c0,0.63-0.19,1.15-0.55,1.56
		c-0.37,0.41-0.92,0.67-1.66,0.77c0.37,0.22,0.67,0.45,0.91,0.7c0.24,0.26,0.56,0.71,0.96,1.36l1.03,1.64h-2.02l-1.22-1.83
		c-0.44-0.65-0.73-1.06-0.89-1.23c-0.16-0.17-0.33-0.29-0.51-0.35c-0.18-0.06-0.46-0.09-0.85-0.09H93.8v3.5H92.11L92.11,161.06z
		 M93.8,156.22h1.25c0.81,0,1.32-0.03,1.52-0.1c0.2-0.07,0.36-0.19,0.47-0.36c0.11-0.17,0.17-0.38,0.17-0.63
		c0-0.28-0.08-0.51-0.23-0.68c-0.15-0.17-0.36-0.28-0.64-0.33c-0.14-0.02-0.55-0.03-1.24-0.03H93.8V156.22L93.8,156.22z
		 M111.55,161.06h-1.84l-0.73-1.91h-3.35l-0.69,1.91h-1.8l3.27-8.38h1.79L111.55,161.06L111.55,161.06z M108.44,157.75l-1.16-3.11
		l-1.13,3.11H108.44L108.44,157.75z M116.9,161.06v-6.96h-2.49v-1.42h6.66v1.42h-2.48v6.96H116.9L116.9,161.06z M125.05,156.92
		c0-0.85,0.13-1.57,0.38-2.15c0.19-0.43,0.45-0.81,0.78-1.15c0.33-0.34,0.69-0.59,1.08-0.75c0.52-0.22,1.12-0.33,1.81-0.33
		c1.24,0,2.22,0.38,2.96,1.15c0.74,0.76,1.11,1.83,1.11,3.19c0,1.35-0.37,2.41-1.1,3.18c-0.74,0.76-1.72,1.15-2.95,1.15
		c-1.25,0-2.24-0.38-2.97-1.14C125.41,159.31,125.05,158.26,125.05,156.92L125.05,156.92z M126.79,156.87
		c0,0.95,0.22,1.67,0.66,2.16c0.44,0.49,0.99,0.73,1.67,0.73c0.67,0,1.23-0.24,1.66-0.73c0.43-0.49,0.65-1.21,0.65-2.19
		c0-0.96-0.21-1.68-0.63-2.15c-0.42-0.47-0.98-0.71-1.68-0.71c-0.7,0-1.26,0.24-1.69,0.72C127.01,155.18,126.79,155.9,126.79,156.87
		L126.79,156.87z M137.94,161.06v-8.38h3.56c0.9,0,1.55,0.08,1.95,0.23c0.41,0.15,0.73,0.42,0.98,0.8c0.24,0.39,0.37,0.83,0.37,1.32
		c0,0.63-0.19,1.15-0.55,1.56c-0.37,0.41-0.92,0.67-1.66,0.77c0.37,0.22,0.67,0.45,0.91,0.7c0.24,0.26,0.56,0.71,0.96,1.36
		l1.03,1.64h-2.02l-1.22-1.83c-0.44-0.65-0.73-1.06-0.89-1.23c-0.16-0.17-0.33-0.29-0.51-0.35c-0.18-0.06-0.46-0.09-0.85-0.09h-0.34
		v3.5H137.94L137.94,161.06z M139.63,156.22h1.25c0.81,0,1.32-0.03,1.52-0.1c0.2-0.07,0.36-0.19,0.47-0.36
		c0.11-0.17,0.17-0.38,0.17-0.63c0-0.28-0.08-0.51-0.23-0.68c-0.15-0.17-0.36-0.28-0.64-0.33c-0.14-0.02-0.55-0.03-1.24-0.03h-1.32
		V156.22L139.63,156.22z M149.77,161.06v-8.38h1.69v8.38H149.77L149.77,161.06z M156.51,161.06v-8.38h6.21v1.42h-4.52v1.86h4.21
		v1.41h-4.21v2.28h4.68v1.41H156.51L156.51,161.06z M167.33,158.34l1.65-0.16c0.1,0.55,0.3,0.96,0.6,1.22
		c0.3,0.26,0.71,0.39,1.23,0.39c0.54,0,0.96-0.11,1.23-0.35c0.28-0.23,0.41-0.5,0.41-0.81c0-0.2-0.06-0.37-0.17-0.51
		c-0.12-0.14-0.32-0.26-0.61-0.36c-0.2-0.07-0.65-0.19-1.35-0.37c-0.91-0.22-1.54-0.5-1.91-0.83c-0.52-0.46-0.77-1.02-0.77-1.69
		c0-0.43,0.12-0.83,0.36-1.2c0.24-0.37,0.59-0.65,1.05-0.85c0.46-0.19,1-0.29,1.65-0.29c1.05,0,1.84,0.23,2.38,0.69
		c0.53,0.46,0.81,1.08,0.84,1.85l-1.69,0.07c-0.07-0.43-0.23-0.74-0.47-0.93c-0.24-0.19-0.6-0.28-1.07-0.28
		c-0.49,0-0.88,0.1-1.16,0.3c-0.18,0.13-0.27,0.3-0.27,0.52c0,0.2,0.08,0.37,0.25,0.51c0.21,0.18,0.73,0.37,1.56,0.56
		c0.82,0.19,1.43,0.4,1.83,0.6c0.39,0.21,0.7,0.49,0.93,0.85c0.22,0.36,0.33,0.81,0.33,1.33c0,0.48-0.13,0.93-0.4,1.35
		c-0.27,0.42-0.64,0.73-1.13,0.93c-0.49,0.21-1.1,0.31-1.82,0.31c-1.06,0-1.87-0.24-2.44-0.73
		C167.77,159.99,167.44,159.27,167.33,158.34L167.33,158.34z M188.81,161.06v-8.31h1.69v6.9h4.21v1.41H188.81L188.81,161.06z
		 M199.29,161.06v-8.38h1.69v8.38H199.29L199.29,161.06z M206.01,161.06v-8.38h2.53l1.52,5.72l1.5-5.72h2.54v8.38h-1.57v-6.6
		l-1.66,6.6h-1.63l-1.66-6.6v6.6H206.01L206.01,161.06z M219.17,161.06v-8.38h1.69v8.38H219.17L219.17,161.06z M227.8,161.06v-6.96
		h-2.49v-1.42h6.66v1.42h-2.48v6.96H227.8L227.8,161.06z M236.5,161.06v-8.38h6.21v1.42h-4.52v1.86h4.21v1.41h-4.21v2.28h4.68v1.41
		H236.5L236.5,161.06z M247.74,152.68h3.09c0.7,0,1.23,0.05,1.59,0.16c0.49,0.14,0.91,0.4,1.26,0.77c0.35,0.37,0.62,0.82,0.8,1.36
		c0.18,0.54,0.27,1.2,0.27,1.98c0,0.69-0.09,1.28-0.26,1.78c-0.21,0.61-0.51,1.1-0.9,1.48c-0.29,0.29-0.69,0.51-1.19,0.67
		c-0.37,0.12-0.87,0.18-1.5,0.18h-3.18V152.68L247.74,152.68z M249.43,154.1v5.55h1.26c0.47,0,0.81-0.03,1.02-0.08
		c0.27-0.07,0.5-0.18,0.68-0.35c0.18-0.16,0.33-0.44,0.44-0.81c0.11-0.38,0.17-0.89,0.17-1.54c0-0.65-0.06-1.14-0.17-1.49
		c-0.11-0.35-0.27-0.62-0.48-0.81c-0.21-0.19-0.47-0.33-0.79-0.39c-0.24-0.05-0.7-0.08-1.39-0.08H249.43L249.43,154.1z"/>
</g>
</svg>
